<svg xmlns="http://www.w3.org/2000/svg" viewBox="0 0 512 512" width="512" height="512" role="img" aria-labelledby="title desc">
  <title id="title">Prenotazioni chiuse</title>
  <desc id="desc">Microfono con lucchetto per indicare che le prenotazioni karaoke sono chiuse.</desc>
  <defs>
    <linearGradient id="bg" x1="0" y1="0" x2="1" y2="1">
      <stop offset="0%" stop-color="#241133"/>
      <stop offset="100%" stop-color="#12071f"/>
    </linearGradient>
    <linearGradient id="gold" x1="0" y1="0" x2="1" y2="1">
      <stop offset="0%" stop-color="#ffd54f"/>
      <stop offset="100%" stop-color="#f7b500"/>
    </linearGradient>
  </defs>

  <circle cx="256" cy="256" r="220" fill="url(#bg)"/>
  <circle cx="256" cy="256" r="220" fill="none" stroke="url(#gold)" stroke-width="12" opacity="0.9"/>

  <g fill="none" stroke="url(#gold)" stroke-width="20" stroke-linecap="round" stroke-linejoin="round">
    <rect x="186" y="98" width="140" height="180" rx="70"/>
    <path d="M156 204c0 58 45 106 100 106s100-48 100-106"/>
    <path d="M256 310v42"/>
    <path d="M210 352h92"/>
  </g>

  <g transform="translate(250 336)">
    <rect x="-64" y="26" width="128" height="98" rx="18" fill="#1d1029" stroke="url(#gold)" stroke-width="12"/>
    <path d="M-26 26v-18c0-20 16-36 36-36s36 16 36 36v18" fill="none" stroke="url(#gold)" stroke-width="12" stroke-linecap="round"/>
    <circle cx="0" cy="72" r="12" fill="url(#gold)"/>
    <path d="M0 84v18" stroke="url(#gold)" stroke-width="10" stroke-linecap="round"/>
  </g>
</svg>
